<?xml version="1.0" encoding="UTF-8" standalone="no"?> <svg width="53" height="54" viewBox="0 0 53 54" fill="none" xmlns="http://www.w3.org/2000/svg">
<path fill-rule="evenodd" clip-rule="evenodd" d="M46.5 15.625V46.5C46.5 50.0899 43.5899 53 40 53H36.75V49.75H40C41.7949 49.75 43.25 48.2949 43.25 46.5V15.625H36.75C34.0576 15.625 31.875 13.4424 31.875 10.75V4.25H14C12.2051 4.25 10.75 5.70507 10.75 7.5V36.75H7.5V7.5C7.5 3.91015 10.4102 1 14 1H31.875L46.5 15.625ZM11.308 49.2339C11.3334 49.7481 11.454 50.2337 11.6698 50.6907C11.8856 51.1478 12.1998 51.554 12.6124 51.9095C13.0313 52.2586 13.5487 52.5315 14.1644 52.7283C14.7801 52.9251 15.5006 53.0235 16.3258 53.0235C17.4239 53.0235 18.3539 52.8521 19.1156 52.5093C19.8836 52.1665 20.4676 51.6905 20.8675 51.0811C21.2738 50.4654 21.4769 49.7544 21.4769 48.9483C21.4769 48.2183 21.3309 47.6121 21.0389 47.1297C20.7469 46.6473 20.3407 46.2601 19.8202 45.9681C19.2997 45.6697 18.6871 45.4412 17.9825 45.2825L15.964 44.816C15.399 44.689 14.961 44.4986 14.65 44.2447C14.339 43.9908 14.1834 43.667 14.1834 43.2735C14.1834 42.7657 14.3834 42.3499 14.7833 42.0262C15.1896 41.6961 15.745 41.5311 16.4496 41.5311C16.9129 41.5311 17.3128 41.604 17.6493 41.75C17.9857 41.896 18.2523 42.0928 18.4491 42.3404C18.6522 42.5879 18.7823 42.8672 18.8395 43.1783H21.277C21.2325 42.5054 21.0167 41.8929 20.6295 41.3406C20.2486 40.782 19.7059 40.3377 19.0013 40.0076C18.3031 39.6775 17.4588 39.5125 16.4686 39.5125C15.5165 39.5125 14.6754 39.6744 13.9454 39.9981C13.2154 40.3218 12.6441 40.7789 12.2315 41.3692C11.8189 41.9595 11.6126 42.6514 11.6126 43.4449C11.6126 44.0987 11.7459 44.6668 12.0125 45.1492C12.2792 45.6316 12.66 46.0284 13.1551 46.3394C13.6502 46.6504 14.2342 46.8821 14.9071 47.0345L16.9161 47.501C17.589 47.6597 18.0904 47.8692 18.4205 48.1294C18.7506 48.3833 18.9156 48.7356 18.9156 49.1863C18.9156 49.5418 18.8236 49.856 18.6395 50.129C18.4554 50.3956 18.1793 50.605 17.8111 50.7574C17.4493 50.9097 17.0018 50.9859 16.4686 50.9859C16.0877 50.9859 15.7418 50.9415 15.4308 50.8526C15.1197 50.7637 14.85 50.6399 14.6214 50.4812C14.3929 50.3226 14.2088 50.1385 14.0692 49.929C13.9295 49.7132 13.8375 49.4815 13.7931 49.2339H11.308ZM7.26514 52.7759V41.931H10.9595V39.7791H1V41.931H4.68481V52.7759H7.26514ZM30.2614 39.7791H33.1655L29.0236 46.3013L33.0988 52.7759H30.1472L27.3859 48.177H27.2717L24.5009 52.7759H21.7016L25.7292 46.2251L21.7397 39.7791H24.7675L27.4716 44.4541H27.5859L30.2614 39.7791Z" fill="url(#paint0_linear_801_1287)"/>
<path d="M46.5 15.625H47V15.4179L46.8536 15.2714L46.5 15.625ZM36.75 53H36.25V53.5H36.75V53ZM36.75 49.75V49.25H36.25V49.75H36.75ZM43.25 15.625H43.75V15.125H43.25V15.625ZM31.875 4.25H32.375V3.75H31.875V4.25ZM10.75 36.75V37.25H11.25V36.75H10.75ZM7.5 36.75H7V37.25H7.5V36.75ZM31.875 1L32.2286 0.646447L32.0821 0.5H31.875V1ZM11.308 49.2339V48.7339H10.7827L10.8086 49.2586L11.308 49.2339ZM12.6124 51.9095L12.286 52.2883L12.2923 52.2936L12.6124 51.9095ZM19.1156 52.5093L18.9118 52.0527L18.9104 52.0534L19.1156 52.5093ZM20.8675 51.0811L20.4502 50.8057L20.4495 50.8068L20.8675 51.0811ZM19.8202 45.9681L19.5715 46.4019L19.5755 46.4041L19.8202 45.9681ZM17.9825 45.2825L17.8699 45.7697L17.8727 45.7703L17.9825 45.2825ZM15.964 44.816L16.0766 44.3288L16.0736 44.3281L15.964 44.816ZM14.7833 42.0262L15.0979 42.4148L15.0986 42.4142L14.7833 42.0262ZM18.4491 42.3404L18.0576 42.6515L18.0625 42.6575L18.4491 42.3404ZM18.8395 43.1783L18.3477 43.2686L18.4229 43.6783H18.8395V43.1783ZM21.277 43.1783V43.6783H21.8111L21.7759 43.1453L21.277 43.1783ZM20.6295 41.3406L20.2163 41.6223L20.2201 41.6277L20.6295 41.3406ZM19.0013 40.0076L18.7876 40.4597L18.7892 40.4604L19.0013 40.0076ZM14.9071 47.0345L15.0202 46.5474L15.0175 46.5468L14.9071 47.0345ZM16.9161 47.501L17.0309 47.0144L17.0292 47.014L16.9161 47.501ZM18.4205 48.1294L18.1109 48.5221L18.1157 48.5258L18.4205 48.1294ZM18.6395 50.129L19.051 50.4131L19.054 50.4085L18.6395 50.129ZM17.8111 50.7574L17.62 50.2954L17.6171 50.2966L17.8111 50.7574ZM14.0692 49.929L13.6494 50.2007L13.6532 50.2064L14.0692 49.929ZM13.7931 49.2339L14.2852 49.1456L14.2113 48.7339H13.7931V49.2339ZM7.26514 41.931V41.431H6.76514V41.931H7.26514ZM7.26514 52.7759V53.2759H7.76514V52.7759H7.26514ZM10.9595 41.931V42.431H11.4595V41.931H10.9595ZM10.9595 39.7791H11.4595V39.2791H10.9595V39.7791ZM1 39.7791V39.2791H0.5V39.7791H1ZM1 41.931H0.5V42.431H1V41.931ZM4.68481 41.931H5.18481V41.431H4.68481V41.931ZM4.68481 52.7759H4.18481V53.2759H4.68481V52.7759ZM33.1655 39.7791L33.5876 40.0471L34.0753 39.2791H33.1655V39.7791ZM30.2614 39.7791V39.2791H29.9715L29.8275 39.5307L30.2614 39.7791ZM29.0236 46.3013L28.6015 46.0333L28.4321 46.3001L28.6005 46.5677L29.0236 46.3013ZM33.0988 52.7759V53.2759H34.0043L33.522 52.5096L33.0988 52.7759ZM30.1472 52.7759L29.7185 53.0333L29.8642 53.2759H30.1472V52.7759ZM27.3859 48.177L27.8146 47.9197L27.6689 47.677H27.3859V48.177ZM27.2717 48.177V47.677H26.9892L26.8434 47.919L27.2717 48.177ZM24.5009 52.7759V53.2759H24.7834L24.9292 53.034L24.5009 52.7759ZM21.7016 52.7759L21.2757 52.514L20.8073 53.2759H21.7016V52.7759ZM25.7292 46.2251L26.1551 46.487L26.3167 46.2243L26.1544 45.962L25.7292 46.2251ZM21.7397 39.7791V39.2791H20.8422L21.3145 40.0422L21.7397 39.7791ZM24.7675 39.7791L25.2003 39.5288L25.0559 39.2791H24.7675V39.7791ZM27.4716 44.4541L27.0388 44.7045L27.1832 44.9541H27.4716V44.4541ZM27.5859 44.4541V44.9541H27.8758L28.0198 44.7025L27.5859 44.4541ZM47 46.5V15.625H46V46.5H47ZM40 53.5C43.866 53.5 47 50.366 47 46.5H46C46 49.8137 43.3137 52.5 40 52.5V53.5ZM36.75 53.5H40V52.5H36.75V53.5ZM36.25 49.75V53H37.25V49.75H36.25ZM40 49.25H36.75V50.25H40V49.25ZM42.75 46.5C42.75 48.0188 41.5188 49.25 40 49.25V50.25C42.0711 50.25 43.75 48.5711 43.75 46.5H42.75ZM42.75 15.625V46.5H43.75V15.625H42.75ZM36.75 16.125H43.25V15.125H36.75V16.125ZM31.375 10.75C31.375 13.7185 33.7815 16.125 36.75 16.125V15.125C34.3338 15.125 32.375 13.1662 32.375 10.75H31.375ZM31.375 4.25V10.75H32.375V4.25H31.375ZM14 4.75H31.875V3.75H14V4.75ZM11.25 7.5C11.25 5.98122 12.4812 4.75 14 4.75V3.75C11.9289 3.75 10.25 5.42893 10.25 7.5H11.25ZM11.25 36.75V7.5H10.25V36.75H11.25ZM7.5 37.25H10.75V36.25H7.5V37.25ZM7 7.5V36.75H8V7.5H7ZM14 0.5C10.134 0.5 7 3.634 7 7.5H8C8 4.18629 10.6863 1.5 14 1.5V0.5ZM31.875 0.5H14V1.5H31.875V0.5ZM46.8536 15.2714L32.2286 0.646447L31.5214 1.35355L46.1464 15.9786L46.8536 15.2714ZM12.1219 50.4772C11.9346 50.0805 11.8296 49.6592 11.8074 49.2093L10.8086 49.2586C10.8371 49.8369 10.9733 50.3868 11.2177 50.9042L12.1219 50.4772ZM12.9388 51.5307C12.575 51.2173 12.3056 50.8662 12.1219 50.4772L11.2177 50.9042C11.4656 51.4293 11.8246 51.8907 12.286 52.2883L12.9388 51.5307ZM14.3166 52.252C13.7511 52.0713 13.2937 51.8263 12.9325 51.5254L12.2923 52.2936C12.769 52.6908 13.3463 52.9918 14.0122 53.2046L14.3166 52.252ZM16.3258 52.5235C15.5387 52.5235 14.8717 52.4294 14.3166 52.252L14.0122 53.2046C14.6886 53.4207 15.4625 53.5235 16.3258 53.5235V52.5235ZM18.9104 52.0534C18.2301 52.3595 17.3744 52.5235 16.3258 52.5235V53.5235C17.4734 53.5235 18.4776 53.3447 19.3208 52.9653L18.9104 52.0534ZM20.4495 50.8068C20.1098 51.3244 19.6062 51.7428 18.9118 52.0527L19.3193 52.9659C20.161 52.5903 20.8254 52.0565 21.2856 51.3554L20.4495 50.8068ZM20.9769 48.9483C20.9769 49.666 20.7975 50.2793 20.4502 50.8057L21.2849 51.3565C21.75 50.6515 21.9769 49.8429 21.9769 48.9483H20.9769ZM20.6112 47.3886C20.8439 47.7731 20.9769 48.2832 20.9769 48.9483H21.9769C21.9769 48.1534 21.8179 47.4511 21.4667 46.8708L20.6112 47.3886ZM19.5755 46.4041C20.0253 46.6564 20.3665 46.9844 20.6112 47.3886L21.4667 46.8708C21.1273 46.3101 20.6561 45.8637 20.0648 45.532L19.5755 46.4041ZM17.8727 45.7703C18.5381 45.9202 19.1021 46.1328 19.5715 46.4019L20.0688 45.5343C19.4972 45.2067 18.8361 44.9622 18.0924 44.7947L17.8727 45.7703ZM15.8514 45.3031L17.8699 45.7697L18.0951 44.7954L16.0766 44.3288L15.8514 45.3031ZM14.3338 44.632C14.7256 44.9518 15.2448 45.1668 15.8543 45.3038L16.0736 44.3281C15.5533 44.2112 15.1965 44.0454 14.9662 43.8573L14.3338 44.632ZM13.6834 43.2735C13.6834 43.8207 13.9092 44.2854 14.3338 44.632L14.9662 43.8573C14.7687 43.6962 14.6834 43.5134 14.6834 43.2735H13.6834ZM14.4687 41.6375C13.9533 42.0548 13.6834 42.6125 13.6834 43.2735H14.6834C14.6834 42.9188 14.8135 42.645 15.0979 42.4148L14.4687 41.6375ZM16.4496 41.0311C15.6699 41.0311 14.99 41.214 14.468 41.6381L15.0986 42.4142C15.3891 42.1782 15.8201 42.0311 16.4496 42.0311V41.0311ZM17.8483 41.2914C17.4349 41.1119 16.964 41.0311 16.4496 41.0311V42.0311C16.8619 42.0311 17.1908 42.0962 17.4502 42.2087L17.8483 41.2914ZM18.8405 42.0293C18.5851 41.7079 18.2479 41.4648 17.8483 41.2914L17.4502 42.2087C17.7235 42.3273 17.9195 42.4777 18.0577 42.6515L18.8405 42.0293ZM19.3312 43.0879C19.2586 42.6925 19.0917 42.3354 18.8356 42.0232L18.0625 42.6575C18.2126 42.8405 18.3061 43.042 18.3477 43.2686L19.3312 43.0879ZM21.277 42.6783H18.8395V43.6783H21.277V42.6783ZM20.2201 41.6277C20.5548 42.105 20.7396 42.6297 20.778 43.2112L21.7759 43.1453C21.7254 42.3812 21.4786 41.6807 21.0389 41.0536L20.2201 41.6277ZM18.7892 40.4604C19.4251 40.7583 19.8932 41.1483 20.2164 41.6223L21.0426 41.059C20.6041 40.4158 19.9867 39.9171 19.2134 39.5548L18.7892 40.4604ZM16.4686 40.0125C17.4051 40.0125 18.1723 40.1688 18.7876 40.4597L19.215 39.5556C18.4339 39.1863 17.5126 39.0125 16.4686 39.0125V40.0125ZM14.1481 40.4552C14.8032 40.1646 15.5731 40.0125 16.4686 40.0125V39.0125C15.4598 39.0125 14.5476 39.1841 13.7427 39.541L14.1481 40.4552ZM12.6414 41.6556C12.9962 41.1479 13.4921 40.7461 14.1481 40.4552L13.7427 39.541C12.9388 39.8976 12.2921 40.4098 11.8217 41.0828L12.6414 41.6556ZM12.1126 43.4449C12.1126 42.743 12.2934 42.1535 12.6414 41.6556L11.8217 41.0828C11.3445 41.7656 11.1126 42.5599 11.1126 43.4449H12.1126ZM12.4502 44.9074C12.2315 44.5117 12.1126 44.0299 12.1126 43.4449H11.1126C11.1126 44.1675 11.2604 44.8219 11.5749 45.3911L12.4502 44.9074ZM13.4211 45.916C12.9931 45.6472 12.6733 45.3112 12.4502 44.9074L11.5749 45.3911C11.885 45.9521 12.3269 46.4096 12.8892 46.7628L13.4211 45.916ZM15.0175 46.5468C14.3901 46.4048 13.8606 46.1921 13.4211 45.916L12.8892 46.7628C13.4399 47.1087 14.0784 47.3595 14.7967 47.5221L15.0175 46.5468ZM17.0292 47.014L15.0202 46.5474L14.794 47.5215L16.803 47.9881L17.0292 47.014ZM18.7301 47.7368C18.3173 47.4114 17.7346 47.1803 17.0309 47.0144L16.8013 47.9877C17.4434 48.1391 17.8635 48.327 18.1109 48.5221L18.7301 47.7368ZM19.4156 49.1863C19.4156 48.5951 19.1897 48.0903 18.7254 47.7331L18.1157 48.5258C18.3115 48.6764 18.4156 48.8761 18.4156 49.1863H19.4156ZM19.054 50.4085C19.2983 50.0463 19.4156 49.6331 19.4156 49.1863H18.4156C18.4156 49.4505 18.3489 49.6657 18.225 49.8494L19.054 50.4085ZM18.0023 51.2194C18.439 51.0387 18.8007 50.7754 19.0509 50.413L18.2281 49.8449C18.1101 50.0157 17.9196 50.1714 17.62 50.2954L18.0023 51.2194ZM16.4686 51.4859C17.046 51.4859 17.5642 51.4039 18.0052 51.2182L17.6171 50.2966C17.3345 50.4156 16.9576 50.4859 16.4686 50.4859V51.4859ZM15.2934 51.3333C15.6562 51.437 16.0493 51.4859 16.4686 51.4859V50.4859C16.1262 50.4859 15.8274 50.4459 15.5681 50.3718L15.2934 51.3333ZM14.3362 50.8919C14.6165 51.0866 14.938 51.2318 15.2934 51.3333L15.5681 50.3718C15.3015 50.2956 15.0834 50.1933 14.9066 50.0706L14.3362 50.8919ZM13.6532 50.2064C13.8311 50.4733 14.0615 50.7012 14.3362 50.8919L14.9066 50.0706C14.7243 49.9439 14.5865 49.8036 14.4852 49.6516L13.6532 50.2064ZM13.3009 49.3223C13.3573 49.6366 13.4745 49.9304 13.6494 50.2006L14.489 49.6574C14.3845 49.496 14.3177 49.3264 14.2852 49.1456L13.3009 49.3223ZM11.308 49.7339H13.7931V48.7339H11.308V49.7339ZM6.76514 41.931V52.7759H7.76514V41.931H6.76514ZM10.9595 41.431H7.26514V42.431H10.9595V41.431ZM10.4595 39.7791V41.931H11.4595V39.7791H10.4595ZM1 40.2791H10.9595V39.2791H1V40.2791ZM1.5 41.931V39.7791H0.5V41.931H1.5ZM4.68481 41.431H1V42.431H4.68481V41.431ZM5.18481 52.7759V41.931H4.18481V52.7759H5.18481ZM7.26514 52.2759H4.68481V53.2759H7.26514V52.2759ZM33.1655 39.2791H30.2614V40.2791H33.1655V39.2791ZM29.4457 46.5694L33.5876 40.0471L32.7434 39.5111L28.6015 46.0333L29.4457 46.5694ZM33.522 52.5096L29.4468 46.035L28.6005 46.5677L32.6757 53.0423L33.522 52.5096ZM30.1472 53.2759H33.0988V52.2759H30.1472V53.2759ZM26.9573 48.4344L29.7185 53.0333L30.5758 52.5185L27.8146 47.9197L26.9573 48.4344ZM27.2717 48.677H27.3859V47.677H27.2717V48.677ZM24.9292 53.034L27.7 48.4351L26.8434 47.919L24.0727 52.5179L24.9292 53.034ZM21.7016 53.2759H24.5009V52.2759H21.7016V53.2759ZM25.3033 45.9633L21.2757 52.514L22.1275 53.0378L26.1551 46.487L25.3033 45.9633ZM21.3145 40.0422L25.304 46.4883L26.1544 45.962L22.1649 39.516L21.3145 40.0422ZM24.7675 39.2791H21.7397V40.2791H24.7675V39.2791ZM27.9044 44.2038L25.2003 39.5288L24.3347 40.0294L27.0388 44.7045L27.9044 44.2038ZM27.5859 43.9541H27.4716V44.9541H27.5859V43.9541ZM29.8275 39.5307L27.1519 44.2058L28.0198 44.7025L30.6954 40.0275L29.8275 39.5307Z" fill="url(#paint1_linear_801_1287)"/>
<defs>
<linearGradient id="paint0_linear_801_1287" x1="23.75" y1="1" x2="23.75" y2="53.0235" gradientUnits="userSpaceOnUse">
<stop stop-color="#88C6FF"/>
<stop offset="1" stop-color="#0085FF"/>
</linearGradient>
<linearGradient id="paint1_linear_801_1287" x1="23.75" y1="1" x2="23.75" y2="53.0235" gradientUnits="userSpaceOnUse">
<stop stop-color="#88C6FF"/>
<stop offset="1" stop-color="#0085FF"/>
</linearGradient>
</defs>
</svg>
